<svg viewBox="0 0 640 400" data-background-color="#1a2026" preserveAspectRatio="xMidYMid meet" height="400" width="640" xmlns="http://www.w3.org/2000/svg" xmlns:xlink="http://www.w3.org/1999/xlink"><rect width="640" height="400" x="0" y="0" opacity="1" fill="#1a2026" data-fill-palette-color="background" id="background"></rect><g id="tight-bounds" transform="matrix(1,0,0,1,122.24000000000001,76.4)"><svg viewBox="0 0 395.52 247.2" height="247.2" width="395.52"><g><svg></svg></g><g><svg viewBox="0 0 395.52 247.2" height="247.2" width="395.52"><g transform="matrix(1,0,0,1,75.54432000000001,90.0693823068309)"><svg viewBox="0 0 244.43135999999996 67.06123538633817" height="67.06123538633817" width="244.43135999999996"><g><svg viewBox="0 0 244.43136 67.06123538633818" height="67.06123538633817" width="244.43135999999996"><g><svg viewBox="0 0 244.43136 67.06123538633818" height="67.06123538633818" width="244.43136"><g id="textblocktransform"><svg viewBox="0 0 244.43136 67.06123538633818" height="67.06123538633818" width="244.43136" id="textblock"><g><svg viewBox="0 0 244.43136 67.06123538633818" height="67.06123538633818" width="244.43136"><g transform="matrix(1,0,0,1,0,0)"><svg width="244.43136" viewBox="5.199999809265137 -38.75 178.5800018310547 49" height="67.06123538633818" data-palette-color="#ffffff"><path d="M5.2-36.15L14.5-36.15Q19.95-36.15 23.08-33.93 26.2-31.7 26.2-27L26.2-27Q26.2-24.15 24.9-22.05 23.6-19.95 21.28-18.75 18.95-17.55 15.8-17.4L15.8-17.4 15.1-19.9Q18.75-19.8 21.65-18.6 24.55-17.4 26.25-15.25 27.95-13.1 27.95-10.15L27.95-10.15Q27.95-7.45 26.95-5.53 25.95-3.6 24.25-2.38 22.55-1.15 20.4-0.58 18.25 0 15.95 0L15.95 0 5.2 0 5.2-36.15ZM10.05-20.3L15.5-20.3Q18.5-20.3 19.85-21.98 21.2-23.65 21.2-26.05L21.2-26.05Q21.2-28.9 19.45-30.2 17.7-31.5 14.75-31.5L14.75-31.5 10.05-31.5 10.05-20.3ZM10.05-4.5L15.7-4.5Q17.7-4.5 19.38-5.1 21.05-5.7 22.03-6.95 23-8.2 23-10.1L23-10.1Q23-12.2 21.88-13.4 20.75-14.6 19-15.13 17.25-15.65 15.4-15.65L15.4-15.65 10.05-15.65 10.05-4.5ZM34.95 0L34.95-20.7 39.6-20.7 39.6 0 34.95 0ZM34.6-28.2L34.6-28.2Q34.6-29.3 35.47-30.05 36.35-30.8 37.4-30.8L37.4-30.8Q38.45-30.8 39.27-30.05 40.1-29.3 40.1-28.2L40.1-28.2Q40.1-27.05 39.27-26.33 38.45-25.6 37.4-25.6L37.4-25.6Q36.35-25.6 35.47-26.35 34.6-27.1 34.6-28.2ZM47.65-20.7L51.8-20.7 52.2-15.65 52-16.45Q53-18.75 55.25-20.13 57.5-21.5 60.45-21.5L60.45-21.5Q63.4-21.5 65.27-19.78 67.15-18.05 67.2-15.3L67.2-15.3 67.2 0 62.5 0 62.5-13.65Q62.45-15.35 61.52-16.43 60.6-17.5 58.65-17.5L58.65-17.5Q56.85-17.5 55.4-16.5 53.95-15.5 53.12-13.75 52.3-12 52.3-9.7L52.3-9.7 52.3 0 47.65 0 47.65-20.7ZM85.24 10.25L85.24 10.25Q82.94 10.25 81.19 9.73 79.44 9.2 78.02 8.25 76.59 7.3 75.29 6.1L75.29 6.1 77.99 2.95Q79.64 4.5 81.34 5.35 83.04 6.2 85.14 6.2L85.14 6.2Q87.49 6.2 89.12 5.43 90.74 4.65 91.59 3.28 92.44 1.9 92.44 0.1L92.44 0.1 92.49-5.5 92.89-4.6Q91.99-2.45 89.64-0.98 87.29 0.5 83.94 0.5L83.94 0.5Q81.09 0.5 78.72-0.95 76.34-2.4 74.92-4.88 73.49-7.35 73.49-10.45L73.49-10.45Q73.49-13.7 74.99-16.18 76.49-18.65 78.94-20.1 81.39-21.55 84.29-21.55L84.29-21.55Q87.04-21.55 89.32-20.43 91.59-19.3 92.64-17.55L92.64-17.55 92.39-16.7 92.89-20.7 97.14-20.7 97.14 0.15Q97.14 2.95 95.69 5.25 94.24 7.55 91.59 8.9 88.94 10.25 85.24 10.25ZM78.14-10.55L78.14-10.55Q78.14-8.55 79.09-6.9 80.04-5.25 81.67-4.3 83.29-3.35 85.29-3.35L85.29-3.35Q87.14-3.35 88.62-4.03 90.09-4.7 91.09-5.88 92.09-7.05 92.49-8.6L92.49-8.6 92.49-12.7Q92.04-14.2 90.99-15.33 89.94-16.45 88.49-17.07 87.04-17.7 85.29-17.7L85.29-17.7Q83.29-17.7 81.67-16.8 80.04-15.9 79.09-14.28 78.14-12.65 78.14-10.55ZM103.39-10.55L103.39-10.55Q103.39-13.65 104.87-16.15 106.34-18.65 108.94-20.1 111.54-21.55 114.84-21.55L114.84-21.55Q118.24-21.55 120.79-20.1 123.34-18.65 124.74-16.15 126.14-13.65 126.14-10.55L126.14-10.55Q126.14-7.45 124.74-4.93 123.34-2.4 120.77-0.95 118.19 0.5 114.79 0.5L114.79 0.5Q111.49 0.5 108.92-0.88 106.34-2.25 104.87-4.73 103.39-7.2 103.39-10.55ZM108.04-10.5L108.04-10.5Q108.04-8.5 108.94-6.88 109.84-5.25 111.37-4.3 112.89-3.35 114.74-3.35L114.74-3.35Q116.69-3.35 118.22-4.3 119.74-5.25 120.59-6.88 121.44-8.5 121.44-10.5L121.44-10.5Q121.44-12.5 120.59-14.13 119.74-15.75 118.22-16.73 116.69-17.7 114.74-17.7L114.74-17.7Q112.84-17.7 111.32-16.7 109.79-15.7 108.92-14.08 108.04-12.45 108.04-10.5ZM132.44 0L132.44-38.7 137.09-38.7 137.09 0 132.44 0ZM151.49 0L146.84 0 146.84-16.55 143.28-16.55 143.28-20.7 146.84-20.7 146.84-29.45Q146.84-33.95 148.86-36.35 150.89-38.75 154.84-38.75L154.84-38.75Q155.89-38.75 157.16-38.45 158.44-38.15 159.39-37.45L159.39-37.45 157.44-34.1Q156.99-34.55 156.44-34.73 155.89-34.9 155.34-34.9L155.34-34.9Q153.49-34.9 152.49-33.65 151.49-32.4 151.49-29.4L151.49-29.4 151.49-20.7 158.03-20.7 158.03-16.55 151.49-16.55 151.49 0ZM170.43 9.95L165.83 9.95 179.48-20.7 183.78-20.7 170.43 9.95ZM174.58-2.2L170.93 0.15 160.98-20.7 166.23-20.7 174.58-2.2Z" opacity="1" transform="matrix(1,0,0,1,0,0)" fill="#ffffff" class="wordmark-text-0" data-fill-palette-color="primary" id="text-0"></path></svg></g></svg></g></svg></g></svg></g></svg></g></svg></g><g><path d="M0 123.6c0-68.262 55.338-123.6 123.6-123.6 53.724 0 99.443 34.276 116.48 82.154l-3.216 0c-16.901-46.175-61.234-79.13-113.264-79.13-66.592 0-120.576 53.984-120.576 120.576 0 66.592 53.984 120.576 120.576 120.576 52.03 0 96.362-32.955 113.264-79.13h3.216c-17.037 47.877-62.755 82.154-116.48 82.154-68.262 0-123.6-55.338-123.6-123.6z" fill="#ffffff" stroke="transparent" data-fill-palette-color="tertiary"></path></g></svg></g><defs></defs></svg><rect width="395.52" height="247.2" fill="none" stroke="none" visibility="hidden"></rect></g></svg>
